<svg xmlns="http://www.w3.org/2000/svg" x="0px" y="0px" width="100" height="100"
    viewBox="0,0,256,256">
    <g fill="none" fill-rule="none" stroke="none" stroke-width="1" stroke-linecap="butt"
        stroke-linejoin="miter" stroke-miterlimit="10" stroke-dasharray="" stroke-dashoffset="0"
        font-family="none" font-weight="none" font-size="none" text-anchor="none"
        style="mix-blend-mode: normal">
        <g transform="scale(2.56,2.56)">
            <path
                d="M30.975,58.255l9.929,11.171c0.921,1.035 0.318,2.678 -1.053,2.873l-8.245,1.178c-0.457,0.066 -0.919,-0.054 -1.287,-0.33l-5.28,-3.96c-0.641,-0.481 -0.87,-1.337 -0.554,-2.074l3.595,-8.389c0.502,-1.169 2.049,-1.421 2.895,-0.469zM64.748,28.847l4.946,2.473c0.683,0.34 1.061,1.087 0.936,1.839l-1.098,6.59c-0.203,1.221 -1.584,1.843 -2.633,1.188l-9.283,-5.803c-1.099,-0.688 -1.086,-2.294 0.028,-2.961l5.435,-3.26c0.507,-0.306 1.137,-0.33 1.669,-0.066zM28.507,28.421c0.651,0 1.174,0.028 1.954,0.651c0.981,0.785 37.476,26.606 44.447,31.539c0.67,0.474 0.912,1.337 0.587,2.091c-1.047,2.433 -3.26,7.613 -4.208,9.83c-0.271,0.639 -0.896,1.046 -1.591,1.046h-5.039c-0.486,0 -0.95,-0.203 -1.278,-0.561l-37.802,-41.087c-0.816,-0.886 -0.505,-2.317 0.608,-2.779c0.922,-0.384 1.879,-0.73 2.322,-0.73zM34.791,20.518c-0.321,-0.313 -0.745,-0.481 -1.195,-0.481h-14.859c-0.917,0.459 -1.737,0.99 -1.737,2.822v11.641v3.932c0,0.269 0.063,0.535 0.184,0.776l1.165,2.331c0.245,0.49 0.245,1.065 0,1.553l-1.349,2.698v1.737l1.737,1.737v1.736l-1.228,1.228c-0.326,0.326 -0.509,0.768 -0.509,1.228v5.509c0,0.46 0.182,0.903 0.509,1.228l0.719,0.719c0.327,0.327 0.509,0.768 0.509,1.228v5.37c0,0.514 -0.234,1.011 -0.632,1.336c-1.162,0.95 -1.105,1.471 -1.105,2.996v7.055c0,0.775 0.525,1.454 1.268,1.671c2.852,0.83 3.314,1.395 7.416,1.395c4.104,0 6.947,0 6.947,0c1.066,0 2.133,-0.875 2.796,-1.381c0.459,-0.349 1.084,-0.481 1.601,-0.228c0.822,0.405 1.883,1.608 3.269,1.608c1.115,0 2.89,-1.737 3.842,-1.737c0.604,0 2.135,1.237 2.135,1.237c0.167,0.083 0.32,0.193 0.452,0.325l1.028,1.403c0.327,0.327 0.768,0.509 1.228,0.509h2.072c0.403,0 0.795,-0.132 1.101,-0.394c0.587,-0.505 1.735,-1.318 3.055,-1.343h8.227c0.278,0 0.547,-0.063 0.794,-0.193c0.478,-0.25 1.369,-1.028 2.079,-1.374c0.681,-0.332 1.497,-0.182 2.016,0.365c0.097,0.102 0.193,0.207 0.281,0.302c0.328,0.36 0.79,0.9 1.275,0.9h3.713c0.46,0 0.903,-0.182 1.228,-0.509l0.485,-0.716c0.459,-0.459 1.127,-0.627 1.747,-0.429c0.564,0.179 2.35,1.271 3.818,1.61c1.088,0.252 2.127,-0.575 2.127,-1.692v-22.279c0,-0.959 -0.778,-1.737 -1.737,-1.737h-1.737l1.228,-1.228c0.327,-0.327 0.509,-0.768 0.509,-1.228v-5.818c0,-0.269 -0.063,-0.535 -0.184,-0.776l-0.993,-1.987c-0.333,-0.669 -0.203,-1.476 0.325,-2.004l0.853,-0.853v-1.737l1.228,-1.228c0.326,-0.326 0.508,-0.768 0.508,-1.228v-6.015c0,-0.142 -0.017,-0.283 -0.052,-0.422l-1.447,-5.785c-0.148,-0.591 0.026,-1.218 0.457,-1.648l1.042,-1.042v-1.737l-1.33,-1.33c-0.264,-0.264 -0.606,-0.436 -0.976,-0.49l-5.485,-0.804l-1.376,0.985l-0.736,-1.077c-0.325,-0.475 -0.86,-0.758 -1.435,-0.758h-9.504c-1.072,0 -1.735,0.69 -1.735,1.725c0,0.252 -0.002,1.749 -1.739,1.749c-1.737,0 -1.737,-1.737 -1.737,-1.737c0,0 0,-1.737 -1.996,-1.737h-10.941c-0.584,0 -1.127,0.288 -1.447,0.776c-0.67,1.023 -1.865,2.697 -2.501,2.697c-0.917,0 -1.143,0 -2.22,0c-1.497,0.001 -2.521,-0.441 -3.051,-0.955z"
                fill="#e85654" fill-rule="evenodd"></path>
            <path
                d="M51.055,84.7h-2.072c-0.731,0 -1.418,-0.285 -1.936,-0.803c-0.036,-0.036 -0.069,-0.075 -0.099,-0.116l-0.973,-1.328c-0.044,-0.037 -0.093,-0.069 -0.146,-0.096c-0.064,-0.032 -0.125,-0.071 -0.182,-0.116c-0.593,-0.479 -1.348,-0.965 -1.585,-1.021c-0.133,0.031 -0.783,0.434 -1.172,0.674c-0.849,0.525 -1.728,1.069 -2.592,1.069c-1.291,0 -2.302,-0.732 -3.041,-1.267c-0.256,-0.185 -0.498,-0.359 -0.67,-0.445c-0.136,-0.063 -0.369,-0.013 -0.554,0.127l-0.128,0.099c-0.771,0.592 -1.936,1.486 -3.273,1.486h-6.947c-3.32,0 -4.414,-0.365 -6.069,-0.919c-0.466,-0.155 -0.984,-0.328 -1.626,-0.516c-1.172,-0.34 -1.99,-1.423 -1.99,-2.631v-7.259c-0.003,-1.421 -0.004,-2.359 1.471,-3.567c0.165,-0.134 0.266,-0.348 0.266,-0.561v-5.37c0,-0.196 -0.077,-0.381 -0.216,-0.521l-0.719,-0.719c-0.516,-0.513 -0.802,-1.202 -0.802,-1.935v-5.509c0,-0.73 0.285,-1.418 0.801,-1.936l0.936,-0.935v-0.909l-1.444,-1.443c-0.187,-0.187 -0.293,-0.441 -0.293,-0.707v-1.737c0,-0.155 0.036,-0.309 0.105,-0.447l1.35,-2.697c0.104,-0.206 0.103,-0.452 0,-0.659l-1.165,-2.329c-0.189,-0.378 -0.29,-0.802 -0.29,-1.224v-15.574c0,-2.262 1.101,-3.123 2.29,-3.717c0.139,-0.069 0.292,-0.105 0.447,-0.105h14.858c0.715,0 1.387,0.271 1.893,0.765c0.336,0.325 1.13,0.672 2.354,0.672h2.087c0.235,-0.162 0.838,-0.781 1.797,-2.245c0.504,-0.77 1.358,-1.229 2.284,-1.229h10.942c2.198,0 2.996,1.637 2.996,2.737c0.022,0.736 0.56,0.736 0.737,0.736c0.404,0 0.738,-0.057 0.738,-0.749c0,-1.604 1.125,-2.725 2.735,-2.725h9.504c0.903,0 1.748,0.446 2.26,1.192l0.16,0.234l0.545,-0.391c0.211,-0.15 0.473,-0.211 0.727,-0.176l5.484,0.804c0.587,0.087 1.118,0.354 1.538,0.771l1.331,1.331c0.188,0.19 0.293,0.444 0.293,0.71v1.737c0,0.266 -0.105,0.52 -0.293,0.707l-1.042,1.042c-0.182,0.182 -0.256,0.45 -0.193,0.699l1.446,5.784c0.055,0.222 0.082,0.445 0.082,0.665v6.015c0,0.729 -0.284,1.417 -0.801,1.935l-0.937,0.936v1.322c0,0.265 -0.105,0.52 -0.293,0.707l-0.853,0.854c-0.224,0.224 -0.278,0.565 -0.137,0.851l0.993,1.986c0.188,0.376 0.289,0.8 0.289,1.224v5.818c0,0.546 -0.158,1.067 -0.454,1.511c1.251,0.253 2.193,1.358 2.193,2.68v22.279c0,0.839 -0.376,1.619 -1.033,2.142c-0.654,0.521 -1.496,0.714 -2.317,0.526c-1.087,-0.251 -2.254,-0.834 -3.106,-1.26c-0.3,-0.149 -0.672,-0.335 -0.788,-0.372c-0.233,-0.076 -0.49,-0.024 -0.682,0.132l-0.42,0.62c-0.035,0.052 -0.075,0.101 -0.12,0.146c-0.509,0.51 -1.215,0.803 -1.937,0.803h-3.713c-0.9,0 -1.536,-0.7 -1.957,-1.163l0.63,-0.793l-0.735,0.679l-0.22,-0.237c-0.22,-0.23 -0.563,-0.292 -0.852,-0.153c-0.326,0.159 -0.753,0.471 -1.131,0.745c-0.35,0.255 -0.652,0.475 -0.923,0.616c-0.385,0.203 -0.809,0.307 -1.258,0.307h-8.227c-0.999,0.019 -1.935,0.697 -2.402,1.101c-0.481,0.41 -1.103,0.635 -1.754,0.635zM48.506,82.525c0.133,0.113 0.3,0.175 0.476,0.175h2.072c0.174,0 0.334,-0.055 0.451,-0.154c0.669,-0.576 2.042,-1.553 3.687,-1.583h8.246c0.121,0 0.231,-0.026 0.328,-0.077c0.142,-0.074 0.425,-0.281 0.675,-0.463c0.444,-0.323 0.948,-0.689 1.432,-0.926c1.076,-0.524 2.354,-0.294 3.179,0.575l0.239,0.257c0.001,0.002 0.113,0.124 0.114,0.125c0.138,0.152 0.425,0.467 0.56,0.521l3.631,-0.012c0.17,0 0.335,-0.06 0.465,-0.165l0.42,-0.62c0.035,-0.053 0.076,-0.102 0.121,-0.146c0.729,-0.728 1.786,-0.987 2.759,-0.674c0.263,0.083 0.604,0.253 1.075,0.488c0.763,0.381 1.807,0.902 2.662,1.1c0.3,0.069 0.52,-0.061 0.623,-0.142c0.104,-0.083 0.279,-0.269 0.279,-0.577v-22.28c0,-0.406 -0.331,-0.736 -0.737,-0.736h-1.736c-0.404,0 -0.769,-0.243 -0.924,-0.617c-0.155,-0.373 -0.069,-0.804 0.217,-1.09l1.228,-1.229c0.14,-0.14 0.216,-0.323 0.216,-0.521v-5.818c0,-0.113 -0.026,-0.227 -0.077,-0.328l-0.994,-1.988c-0.527,-1.056 -0.321,-2.325 0.512,-3.158l0.56,-0.561v-1.322c0,-0.266 0.105,-0.52 0.293,-0.707l1.229,-1.228c0.136,-0.139 0.213,-0.325 0.213,-0.521v-6.015c0,-0.061 -0.008,-0.12 -0.022,-0.183l-1.446,-5.781c-0.231,-0.928 0.044,-1.923 0.72,-2.599l0.748,-0.748v-0.909l-1.037,-1.037c-0.112,-0.112 -0.257,-0.185 -0.416,-0.208l-5.084,-0.745l-1.048,0.75c-0.219,0.156 -0.493,0.221 -0.756,0.171c-0.265,-0.047 -0.5,-0.198 -0.651,-0.42l-0.736,-1.076c-0.139,-0.202 -0.367,-0.323 -0.61,-0.323h-9.504c-0.501,0 -0.735,0.23 -0.735,0.725c0,1.67 -1.075,2.749 -2.738,2.749c-2.008,0 -2.737,-1.637 -2.737,-2.736c-0.021,-0.483 -0.356,-0.738 -0.996,-0.738h-10.942c-0.249,0 -0.477,0.121 -0.61,0.324c-1.813,2.768 -2.675,3.149 -3.337,3.149h-2.22c-1.595,0 -2.925,-0.439 -3.748,-1.237c-0.001,-0.001 -0.001,-0.001 -0.002,-0.002c-0.132,-0.129 -0.304,-0.197 -0.497,-0.197h-14.62c-0.577,0.301 -0.976,0.625 -0.976,1.822v15.573c0,0.113 0.027,0.227 0.078,0.328l1.167,2.331c0.383,0.769 0.383,1.684 -0.001,2.448l-1.244,2.486v1.087l1.444,1.443c0.188,0.188 0.293,0.441 0.293,0.707v1.738c0,0.266 -0.105,0.52 -0.293,0.707l-1.228,1.228c-0.139,0.139 -0.216,0.324 -0.216,0.521v5.509c0,0.197 0.076,0.382 0.214,0.52l0.721,0.721c0.517,0.517 0.802,1.204 0.802,1.935v5.371c0,0.811 -0.374,1.6 -1,2.11c-0.739,0.604 -0.739,0.711 -0.736,2.015v7.262c0,0.324 0.225,0.617 0.548,0.711c0.671,0.195 1.213,0.376 1.701,0.539c1.522,0.509 2.44,0.815 5.436,0.815h6.947c0.659,0 1.499,-0.646 2.055,-1.072l0.135,-0.104c0.804,-0.61 1.818,-0.737 2.648,-0.33c0.326,0.16 0.634,0.384 0.96,0.619c0.603,0.436 1.226,0.887 1.868,0.887c0.295,0 1.074,-0.482 1.539,-0.771c0.803,-0.496 1.562,-0.966 2.303,-0.966c0.768,0 1.87,0.745 2.687,1.396c0.223,0.124 0.427,0.277 0.606,0.457c0.036,0.036 0.069,0.075 0.1,0.116zM69.696,74.579h-5.039c-0.765,0 -1.5,-0.323 -2.016,-0.886l-37.8,-41.087c-0.605,-0.656 -0.852,-1.57 -0.66,-2.443c0.192,-0.871 0.797,-1.595 1.621,-1.937c1.716,-0.714 2.347,-0.806 2.705,-0.806c0.815,0 1.571,0.065 2.578,0.87c0.63,0.502 17.229,12.279 44.4,31.504c1.062,0.752 1.443,2.11 0.928,3.305c-0.889,2.064 -2.618,6.11 -3.699,8.641l-0.507,1.187c-0.426,1.003 -1.412,1.652 -2.511,1.652zM28.509,29.421c-0.024,0.001 -0.435,0.026 -1.939,0.652c-0.225,0.094 -0.383,0.282 -0.435,0.52c-0.053,0.239 0.012,0.479 0.178,0.659l37.802,41.089c0.14,0.151 0.337,0.238 0.542,0.238h5.039c0.295,0 0.558,-0.171 0.67,-0.437l0.508,-1.188c1.083,-2.532 2.813,-6.58 3.702,-8.646c0.138,-0.318 0.036,-0.681 -0.246,-0.88c-16.238,-11.49 -43.612,-30.869 -44.494,-31.574c-0.54,-0.433 -0.804,-0.433 -1.327,-0.433zM31.356,74.494c-0.587,0 -1.157,-0.188 -1.636,-0.548l-5.28,-3.96c-1.014,-0.762 -1.372,-2.105 -0.873,-3.269l3.595,-8.388c0.37,-0.865 1.146,-1.473 2.076,-1.623c0.928,-0.154 1.858,0.18 2.484,0.884l9.929,11.171c0.671,0.754 0.872,1.812 0.524,2.761c-0.348,0.947 -1.185,1.625 -2.184,1.767l-8.244,1.178c-0.129,0.018 -0.261,0.027 -0.391,0.027zM29.679,58.672c-0.049,0 -0.09,0.004 -0.121,0.009c-0.12,0.02 -0.415,0.102 -0.558,0.437l-3.596,8.389c-0.135,0.314 -0.038,0.676 0.235,0.881l5.28,3.96c0.157,0.118 0.351,0.165 0.545,0.14l8.245,-1.178c0.394,-0.056 0.542,-0.351 0.588,-0.475c0.045,-0.125 0.123,-0.446 -0.141,-0.743l-9.93,-11.172v0c-0.181,-0.206 -0.399,-0.248 -0.547,-0.248zM67.818,42.2c-0.504,0 -1.006,-0.14 -1.448,-0.415l-9.284,-5.804c-0.814,-0.509 -1.295,-1.386 -1.286,-2.346c0.009,-0.96 0.506,-1.827 1.33,-2.32l5.435,-3.26c0.803,-0.483 1.786,-0.523 2.627,-0.104c0.001,0 0.002,0.001 0.003,0.001l4.947,2.474c1.08,0.538 1.674,1.702 1.475,2.897l-1.098,6.59c-0.15,0.903 -0.738,1.668 -1.574,2.045c-0.361,0.162 -0.744,0.242 -1.127,0.242zM63.973,29.666c-0.132,0 -0.264,0.034 -0.378,0.104l-5.437,3.261c-0.319,0.191 -0.357,0.5 -0.358,0.624c-0.001,0.124 0.03,0.434 0.346,0.632l9.283,5.803c0.3,0.187 0.583,0.094 0.692,0.046c0.108,-0.049 0.366,-0.2 0.424,-0.55l1.098,-6.59c0.054,-0.322 -0.105,-0.636 -0.395,-0.779l-4.946,-2.474c-0.102,-0.052 -0.216,-0.077 -0.329,-0.077z"
                fill="#1f212b" fill-rule="nonzero"></path>
        </g>
    </g>
    <g fill="#ffba03" fill-rule="nonzero" stroke="none" stroke-width="1" stroke-linecap="butt"
        stroke-linejoin="miter" stroke-miterlimit="10" stroke-dasharray="" stroke-dashoffset="0"
        font-family="none" font-weight="none" font-size="none" text-anchor="none"
        style="mix-blend-mode: normal">
        <g>
            <path
                d="M70.445,146.08l5.15,18.44c1,1.00667 2.29333,1.86667 3.88,2.58c1.59333,0.70667 3.97667,1.06 7.15,1.06v0c2.68,0 5.19,-0.35333 7.53,-1.06c2.34,-0.71333 4.36667,-1.76 6.08,-3.14c1.72,-1.38 3.08,-3.05333 4.08,-5.02c1.00667,-1.96667 1.51,-4.20333 1.51,-6.71v0c0,-3.34667 -1.02667,-6.14667 -3.08,-8.4c-2.04667,-2.26 -4.59667,-4.26667 -7.65,-6.02c-3.05333,-1.76 -6.37667,-3.47667 -9.97,-5.15c-3.59333,-1.67333 -6.91667,-3.66 -9.97,-5.96c-3.05333,-2.3 -5.60333,-5.05667 -7.65,-8.27c-2.05333,-3.22 -3.08,-7.25667 -3.08,-12.11v0c0,-3.51333 0.62667,-6.65 1.88,-9.41c1.26,-2.76 3.03667,-5.1 5.33,-7.02c2.3,-1.92667 5.04,-3.41333 8.22,-4.46c3.18,-1.04 6.73333,-1.56 10.66,-1.56v0c5.10667,0 9.77,0.39667 13.99,1.19c4.22,0.79333 7.54333,1.77667 9.97,2.95v0c0,1.42 -0.10333,3.07 -0.31,4.95c-0.20667,1.88 -0.45667,3.82333 -0.75,5.83c-0.29333,2.00667 -0.60667,3.95333 -0.94,5.84c-0.34,1.88 -0.67667,3.53 -1.01,4.95v0h-3.26l-5.02,-17.18c-1.50667,-0.67333 -3.40667,-1.17667 -5.7,-1.51c-2.3,-0.33333 -4.74667,-0.5 -7.34,-0.5v0c-4.26667,0 -7.69667,1.19 -10.29,3.57c-2.59333,2.38667 -3.89,5.71333 -3.89,9.98v0c0,3.42667 1.02667,6.31 3.08,8.65c2.04667,2.34 4.61667,4.43 7.71,6.27c3.09333,1.84 6.41667,3.62 9.97,5.34c3.55333,1.71333 6.88,3.69667 9.98,5.95c3.09333,2.26 5.66333,4.93667 7.71,8.03c2.04667,3.09333 3.07,6.94 3.07,11.54v0c0,3.76667 -0.69,7.19667 -2.07,10.29c-1.38,3.09333 -3.36667,5.72667 -5.96,7.9c-2.58667,2.17333 -5.76333,3.84667 -9.53,5.02c-3.76,1.17333 -8.02333,1.76 -12.79,1.76v0c-5.27333,0 -10,-0.63 -14.18,-1.89c-4.18,-1.25333 -7.14667,-2.59 -8.9,-4.01v0c0.08,-1.42 0.22333,-3.13333 0.43,-5.14c0.21333,-2.00667 0.46667,-4.07667 0.76,-6.21c0.29333,-2.13333 0.60667,-4.20333 0.94,-6.21c0.33333,-2.00667 0.66667,-3.72333 1,-5.15v0zM139.695,173.18h-12.05v-3.64c3.34667,-1.58667 6.77667,-2.59 10.29,-3.01v0v-74.38c-1.67333,-0.34 -3.38667,-0.78 -5.14,-1.32c-1.76,-0.54667 -3.47667,-1.15333 -5.15,-1.82v0v-3.64h13.3c1.58667,0 3.11333,-0.04 4.58,-0.12c1.46,-0.08667 2.98667,-0.17 4.58,-0.25c1.58667,-0.08667 3.3,-0.17333 5.14,-0.26c1.84,-0.08 3.93,-0.12 6.27,-0.12v0c3.34667,0 6.75667,0.27 10.23,0.81c3.46667,0.54667 6.6,1.57333 9.4,3.08c2.80667,1.50667 5.08667,3.61667 6.84,6.33c1.75333,2.72 2.63,6.25333 2.63,10.6v0c0,2.17333 -0.33333,4.35 -1,6.53c-0.66667,2.17333 -1.69,4.2 -3.07,6.08c-1.38,1.88 -3.11667,3.53 -5.21,4.95c-2.08667,1.42667 -4.55333,2.47333 -7.4,3.14v0v0.5c2.50667,0.42 4.99333,1.13 7.46,2.13c2.47333,1.00667 4.67,2.36667 6.59,4.08c1.92667,1.71333 3.49333,3.82667 4.7,6.34c1.21333,2.50667 1.82,5.51667 1.82,9.03v0c0,4.51333 -1.00333,8.4 -3.01,11.66c-2.00667,3.26667 -4.62,5.94333 -7.84,8.03c-3.22,2.09333 -6.87667,3.62 -10.97,4.58c-4.1,0.96 -8.24,1.44 -12.42,1.44v0c-2.92667,0 -6.23,-0.12333 -9.91,-0.37c-3.68,-0.25333 -7.23333,-0.38 -10.66,-0.38zM161.145,167.41v0c3.00667,0 5.82667,-0.46 8.46,-1.38c2.63333,-0.92 4.89333,-2.19667 6.78,-3.83c1.88,-1.62667 3.36333,-3.59 4.45,-5.89c1.08667,-2.3 1.63,-4.79 1.63,-7.47v0c0,-3.34 -0.64667,-6.12 -1.94,-8.34c-1.3,-2.21333 -3.05667,-3.97 -5.27,-5.27c-2.22,-1.29333 -4.77,-2.19 -7.65,-2.69c-2.88667,-0.50667 -5.87667,-0.76 -8.97,-0.76v0h-9.41v34.63c1.17333,0.33333 2.57333,0.58333 4.2,0.75c1.63333,0.16667 4.20667,0.25 7.72,0.25zM149.225,125.26h6.27c1.42,0 3.11333,-0.06333 5.08,-0.19c1.96667,-0.12 3.57667,-0.26667 4.83,-0.44v0c3.84667,-1.33333 7.00333,-3.48667 9.47,-6.46c2.46667,-2.96667 3.7,-6.45667 3.7,-10.47v0c0,-5.52 -1.65,-9.66 -4.95,-12.42c-3.30667,-2.76 -7.72,-4.14 -13.24,-4.14v0c-2.59333,0 -4.80667,0.04333 -6.64,0.13c-1.84,0.08 -3.34667,0.20333 -4.52,0.37v0z"></path>
        </g>
    </g>
</svg>